<?xml version="1.0" encoding="UTF-8" standalone="no"?>
<!-- Created with Inkscape (http://www.inkscape.org/) -->

<svg
   xmlns:dc="http://purl.org/dc/elements/1.1/"
   xmlns:cc="http://creativecommons.org/ns#"
   xmlns:rdf="http://www.w3.org/1999/02/22-rdf-syntax-ns#"
   xmlns:svg="http://www.w3.org/2000/svg"
   xmlns="http://www.w3.org/2000/svg"
   xmlns:sodipodi="http://sodipodi.sourceforge.net/DTD/sodipodi-0.dtd"
   xmlns:inkscape="http://www.inkscape.org/namespaces/inkscape"
   id="svg2985"
   version="1.1"
   inkscape:version="0.48.4 r9939"
   width="200"
   height="200"
   sodipodi:docname="e-link-fix.svg"
   inkscape:export-filename="C:\Users\Graham\Desktop\16.png"
   inkscape:export-xdpi="7.1999998"
   inkscape:export-ydpi="7.1999998">
  <metadata
     id="metadata2991">
    <rdf:RDF>
      <cc:Work
         rdf:about="">
        <dc:format>image/svg+xml</dc:format>
        <dc:type
           rdf:resource="http://purl.org/dc/dcmitype/StillImage" />
        <dc:title></dc:title>
      </cc:Work>
    </rdf:RDF>
  </metadata>
  <defs
     id="defs2989" />
  <sodipodi:namedview
     pagecolor="#ffffff"
     bordercolor="#666666"
     borderopacity="1"
     objecttolerance="10"
     gridtolerance="10"
     guidetolerance="10"
     inkscape:pageopacity="0"
     inkscape:pageshadow="2"
     inkscape:window-width="1920"
     inkscape:window-height="1018"
     id="namedview2987"
     showgrid="false"
     inkscape:zoom="3.56"
     inkscape:cx="121.79926"
     inkscape:cy="100"
     inkscape:window-x="-8"
     inkscape:window-y="-8"
     inkscape:window-maximized="1"
     inkscape:current-layer="svg2985" />
  <path
     inkscape:connector-curvature="0"
     id="path3027"
     d="m 109.42767,175.87172 c -5.18878,-0.95674 -12.235556,-4.89784 -14.967555,-8.37101 L 92.493059,165 56.958407,165 c -30.970895,0 -35.736471,-0.20182 -37.106079,-1.57143 -1.303389,-1.30339 -1.571429,-4.42635 -1.571429,-18.30887 0,-11.86651 0.366028,-17.23801 1.257742,-18.4575 1.106753,-1.51358 2.997496,-1.68658 15.75,-1.44113 l 14.492258,0.27893 0.307498,4.25 0.307498,4.25 21.712252,0 21.712253,0 9.4605,-9.5 9.4605,-9.5 -45.658823,0 c -40.174686,0 -45.847567,-0.18875 -47.230249,-1.57143 -2.297513,-2.29751 -2.297513,-25.559629 0,-27.857141 C 21.246693,84.177063 28.325658,84 82.678014,84 l 61.254256,0 2.3012,-2.449518 c 6.16359,-6.560832 19.20057,-8.800217 28.12063,-4.830328 6.4137,2.854426 12.46897,9.897159 14.49162,16.854813 3.28582,11.302813 0.38227,18.724443 -12.39215,31.675033 l -8.63097,8.75 3.97915,0.0137 c 8.81872,0.0302 8.47915,-0.58998 8.47915,15.4863 0,13.94981 -0.05,14.28013 -2.25,14.86971 -1.2375,0.33164 -11.04922,0.60913 -21.80383,0.61664 L 136.67323,165 l -3.3279,3.43353 c -5.77185,5.95503 -15.51996,8.98661 -23.91766,7.43819 z M 125.2809,131.5 c 0,-3.37466 3.3444,-6.5 6.95559,-6.5 1.62558,0 4.61337,1.125 6.63955,2.5 6.3586,4.31506 10.27432,3.29278 19.26278,-5.02894 3.37814,-3.12757 6.14208,-6.08802 6.14208,-6.57877 0,-0.49076 -2.62206,-0.89229 -5.82681,-0.89229 -5.79523,0 -5.82461,0.015 -5.42103,2.76475 0.58134,3.96089 -3.01055,8.23525 -6.92037,8.23525 -1.66268,0 -4.32574,-0.9276 -5.91792,-2.06133 -3.99724,-2.84628 -8.9581,-3.48987 -12.50908,-1.62285 -1.59764,0.84 -5.13787,3.81257 -7.8672,6.60572 L 114.85608,134 l 5.21241,0 c 4.89324,0 5.21241,-0.15308 5.21241,-2.5 z M 19.330239,72.092192 c -0.610793,-1.141277 -1.04934,-8.85412 -1.04934,-18.455022 0,-13.661497 0.269885,-16.764198 1.571429,-18.065741 1.401664,-1.401665 9.909176,-1.569954 78.75,-1.557774 42.448212,0.0075 78.191072,0.284994 79.428572,0.616631 2.20002,0.589582 2.25,0.919905 2.25,14.869714 0,13.949809 -0.05,14.280132 -2.25,14.869714 -1.2375,0.331637 -30.46163,0.609121 -64.9425,0.616631 L 50.395895,65 l -0.307498,4.25 -0.307498,4.25 -14.70066,0.27645 c -13.732071,0.258236 -14.769799,0.147265 -15.75,-1.684258 z"
     style="fill:#d3d3d3" />
  <path
     inkscape:connector-curvature="0"
     id="path3025"
     d="m 105.45345,173.73104 c -1.8301,-0.58563 -5.496215,-3.01469 -8.146929,-5.39791 L 92.48704,164 57.006414,164 c -28.966121,0 -35.691144,-0.25366 -36.627193,-1.38153 -0.78963,-0.95144 -1.06123,-6.7885 -0.872445,-18.75 L 19.780899,126.5 33.77253,126.22021 c 15.419556,-0.30835 16.508369,0.0855 16.508369,5.97092 l 0,2.80887 21.768762,0 21.768761,0 9.731238,-9.76789 c 5.35218,-5.37234 9.73124,-10.09734 9.73124,-10.5 0,-0.40266 -20.610001,-0.73211 -45.800001,-0.73211 -34.288889,0 -46.101601,-0.3016 -47,-1.2 -1.658914,-1.65891 -1.658914,-24.941086 0,-26.6 C 21.387962,85.292937 36.54882,85 82.586543,85 l 60.905647,0 3.14435,-2.654621 c 13.75205,-11.61016 34.09675,-6.794541 40.68019,9.629059 0.76601,1.910941 1.39274,5.756029 1.39274,8.544642 0,8.59529 -2.44953,13.04545 -12.92014,23.47252 -5.22964,5.2079 -9.50843,9.81529 -9.50843,10.23865 0,0.42336 2.68417,0.76975 5.96482,0.76975 4.87378,0 6.15416,0.3538 7,1.93426 1.34542,2.51394 1.34542,22.61754 0,25.13148 C 178.27299,163.88329 176.95048,164 157.32737,164 l -20.88316,0 -5.08904,4.34392 c -2.79897,2.38916 -6.82542,4.86416 -8.94767,5.5 -4.65358,1.39425 -12.40557,1.34263 -16.95405,-0.11288 z m 20.82745,-41.4023 c 0,-5.8589 5.70657,-8.09799 11.01147,-4.32057 3.44738,2.45475 8.00855,3.4546 11.62205,2.54767 2.60397,-0.65355 17.36648,-14.02058 17.36648,-15.72484 0,-0.45705 -3.39539,-0.831 -7.54531,-0.831 l -7.54532,0 0.63903,3.40629 c 0.50222,2.67706 0.19079,3.85452 -1.45469,5.5 -2.72387,2.72387 -5.66408,2.60386 -10.59371,-0.43238 -4.64886,-2.86331 -9.97935,-3.18976 -13.52749,-0.82844 -3.27977,2.18271 -12.97251,11.57498 -12.97251,12.57037 0,0.43129 2.925,0.78416 6.5,0.78416 6.37779,0 6.5,-0.0502 6.5,-2.67126 z M 19.947566,72.333333 C 18.690562,71.07633 19.186233,37.494666 20.480899,36.2 21.393789,35.28711 40.406414,35 99.945715,35 c 76.354675,0 78.290085,0.04721 79.300005,1.934259 0.56935,1.063842 1.03518,6.718425 1.03518,12.565741 0,5.847316 -0.46583,11.501899 -1.03518,12.565741 C 178.23882,63.947137 176.4624,64 114.24572,64 l -63.964821,0 0,2.565741 c 0,1.411158 -0.465833,3.436158 -1.035184,4.5 C 48.299043,72.834616 47.030752,73 34.412382,73 26.8234,73 20.314232,72.7 19.947566,72.333333 z"
     style="fill:#a9a9a9" />
  <path
     inkscape:connector-curvature="0"
     id="path3023"
     d="m 104.58611,172.53235 c -1.75713,-0.76415 -5.182453,-3.22154 -7.611828,-5.46086 L 92.557238,163 l -36.160728,0 -36.160728,0 0.272558,-18.25 0.272559,-18.25 12,-0.2896 c 15.860511,-0.38277 16.309756,-0.24701 16.692731,5.04428 l 0.307269,4.24532 22,0.2454 c 12.1,0.13497 22.45,-0.10679 23,-0.53725 0.55,-0.43046 5.275001,-5.16675 10.500001,-10.52509 7.66724,-7.86291 9.21062,-9.92668 8,-10.69744 -0.89575,-0.57029 -19.929489,-0.96116 -47.250001,-0.97031 l -45.75,-0.0153 0,-13.5 0,-13.5 61.605644,0 61.605647,0 3.14435,-2.654621 c 8.29418,-7.002352 19.49516,-8.408369 28.64249,-3.595379 10.25233,5.394405 14.8492,16.436 11.55132,27.74604 -1.56228,5.35783 -2.82293,7.08802 -11.84382,16.25509 -6.32122,6.42366 -9.74219,10.61048 -9.15054,11.19905 0.5197,0.517 3.64491,1.07721 6.94491,1.24491 l 6,0.30491 0,13 0,13 -21.60482,0.5 -21.60482,0.5 -4.25561,3.84717 c -2.34059,2.11594 -5.76647,4.47844 -7.61307,5.25 -4.26684,1.7828 -14.95125,1.74657 -19.11647,-0.0648 z m 21.113,-37.13934 c 0.90054,-0.34557 1.58179,-1.76682 1.58179,-3.3 0,-5.30788 4.87156,-6.74478 10.14246,-2.99157 3.97984,2.83389 9.77721,3.51624 13.44479,1.58244 1.60201,-0.84469 6.06275,-4.73381 9.91275,-8.64247 7.98709,-8.1088 7.82229,-9.00046 -1.66821,-9.0261 -7.98786,-0.0216 -9.00829,0.52693 -8.27291,4.44686 1.20161,6.40512 -4.06882,8.31704 -11.05888,4.01174 -7.28726,-4.48834 -12.6655,-2.90683 -21.92067,6.44592 -3.23531,3.26943 -5.5184,6.36975 -5.14072,6.98084 0.71757,1.16105 10.29068,1.52418 12.9796,0.49234 z M 20.947566,72.333333 C 20.580899,71.966667 20.280899,63.638957 20.280899,53.827312 l 0,-17.839355 79.25,0.256022 L 178.7809,36.5 l 0,13 0,13 -64.5,0.518386 c -35.475001,0.285113 -64.612501,0.622613 -64.750001,0.75 -0.1375,0.127388 -0.25,1.983469 -0.25,4.124625 0,2.627427 -0.514226,4.090338 -1.581787,4.5 -2.154223,0.826653 -25.918229,0.77364 -26.751546,-0.05968 z"
     style="fill:#8d8d8d" />
  <path
     inkscape:connector-curvature="0"
     id="path3021"
     d="m 104.35333,171.26633 c -1.88516,-0.92848 -4.902098,-3.16266 -6.704299,-4.96486 L 94.372301,163.02474 57.5766,162.76237 20.780899,162.5 l 0,-17.5 0,-17.5 14,0 14,0 0.5,4 0.5,4 23.000111,0.26782 23.000112,0.26781 10.449348,-10.48502 c 5.74714,-5.76677 10.09742,-10.83729 9.6673,-11.26782 C 115.46764,113.85225 93.890387,113.275 67.948311,113 l -47.167412,-0.5 0,-13 0,-13 62.407385,-0.213693 62.407386,-0.213694 2.59262,-2.483258 c 7.93871,-7.603859 23.30749,-7.49938 31.43419,0.213693 6.53656,6.203862 8.78654,14.80455 6.20027,23.700982 -1.46602,5.04295 -2.91653,7.03406 -11.70387,16.06594 -5.51675,5.67027 -9.73559,10.78668 -9.3752,11.3698 0.36039,0.58313 3.50555,1.06023 6.98925,1.06023 4.85328,0 6.47589,0.36978 6.94098,1.58179 0.80032,2.0856 0.78455,21.79193 -0.0191,23.88626 -0.55479,1.44575 -3.07111,1.61341 -22.08889,1.47177 l -21.46277,-0.15985 -3.16112,3.00222 c -7.38854,7.01714 -19.56257,9.43712 -27.58868,5.48414 z M 128.12672,133 c 0.73636,-5.32332 4.25703,-6.4625 9.04117,-2.92543 3.90782,2.88918 10.01188,3.54178 14.26229,1.52483 1.88528,-0.89462 6.78544,-5.00981 10.88925,-9.14488 8.87456,-8.94214 8.591,-9.58879 -4.03853,-9.20968 l -8.5,0.25516 0.27047,3.37287 c 0.51675,6.44414 -3.41577,7.82297 -10.27047,3.60104 -7.41346,-4.56607 -12.85007,-2.90958 -22.37127,6.81635 -3.72709,3.80723 -6.07854,6.98193 -5.66592,7.64956 0.45615,0.73807 3.41366,1.03863 8.37127,0.85073 7.32543,-0.27765 7.68128,-0.40159 8.01174,-2.79055 z M 20.734609,70.739965 C 20.456704,70.015757 20.353431,62.015498 20.505113,52.961612 L 20.780899,36.5 99.218088,36.243861 c 62.088312,-0.202751 78.603412,0.0057 79.234692,1 1.03389,1.628482 1.04118,22.872419 0.008,24.498668 -0.61246,0.964403 -15.10257,1.300161 -64.73469,1.5 L 49.780899,63.5 l -0.5,4 -0.5,4 -13.770505,0.278353 C 24.343615,71.993968 21.126005,71.759927 20.734609,70.739965 z"
     style="fill:#707070" />
  <path
     inkscape:connector-curvature="0"
     id="path3019"
     d="m 108.7809,162.83302 c -9.294401,-5.14055 -10.945021,-15.01403 -3.82713,-22.89268 L 108.51362,136 l 10.82463,0 c 6.81828,0 11.07718,0.40865 11.507,1.10413 1.42057,2.29853 9.04173,4.85236 14.54473,4.87391 4.27535,0.0167 7.00982,-0.68837 11.5,-2.96537 4.74729,-2.40739 7.15279,-2.98682 12.39092,-2.98469 3.575,10e-4 7.07697,0.36875 7.78215,0.81622 0.95639,0.60687 1.21047,3.96949 1,13.23469 L 177.7809,162.5 l -19,0.24671 c -10.45,0.13569 -19.62997,-0.15757 -20.39992,-0.65168 -1.15635,-0.74207 -1.02585,-1.37394 0.75,-3.63156 2.41364,-3.06845 2.72953,-5.48386 0.94992,-7.26347 -2.37312,-2.37312 -5.39392,-1.17408 -10.77859,4.27832 -2.97565,3.01308 -6.85329,6.16308 -8.61697,7 -3.7372,1.77342 -9.05295,1.93181 -11.90444,0.3547 z M 21.480899,161.8 c -1.386752,-1.38675 -1.705875,-31.45452 -0.356413,-33.58116 0.608131,-0.95836 4.068671,-1.21032 13.734687,-1 l 12.921726,0.28116 0.5,4 0.5,4 22.169054,0.5 c 12.192979,0.275 22.436386,0.76841 22.763126,1.09646 0.32674,0.32805 -0.08683,2.2261 -0.919053,4.21788 -1.791041,4.28656 -1.968027,12.08229 -0.377866,16.64382 0.911213,2.61391 0.861874,3.42975 -0.25,4.13391 -2.248604,1.42407 -69.245958,1.14723 -70.685261,-0.29207 z m 48.390424,-48.55999 c -32.60863,-0.18073 -47.31822,-0.59914 -48.25,-1.37245 -1.786066,-1.4823 -1.90799,-22.899994 -0.140424,-24.66756 1.443015,-1.443015 117.419461,-1.727045 119.683591,-0.293108 1.11844,0.708344 0.8789,1.53794 -1.25,4.329078 -2.84492,3.729874 -3.33573,6.661895 -1.43359,8.56403 2.38842,2.38842 5.39342,1.17439 10.83416,-4.377037 C 155.78014,88.826356 158.91678,87 163.7809,87 c 11.21989,0 17.46981,12.693636 10.96395,22.26787 L 172.2088,113 l -12.77612,0 c -10.72961,0 -13.4392,-0.32036 -16.91564,-2 -5.70559,-2.75664 -14.24247,-2.64969 -20.73614,0.25977 -4.9782,2.23046 -5.2045,2.2391 -51.909577,1.98024 z M 20.898711,70.446417 c -0.339797,-0.885495 -0.617812,-8.493087 -0.617812,-16.90576 0,-11.67614 0.321819,-15.562854 1.359938,-16.424416 0.990079,-0.821693 22.407535,-1.058969 78.750003,-0.872445 L 177.7809,36.5 l 0,13 0,13 -64.5,0.5 -64.500001,0.5 -0.5,4 -0.5,4 -13.132188,0.278205 c -11.314867,0.239705 -13.217685,0.0554 -13.75,-1.331788 z"
     style="fill:#555555" />
  <path
     inkscape:connector-curvature="0"
     id="path3017"
     d="m 108.38902,161.28361 c -4.25687,-2.09694 -7.5745,-8.88371 -6.5726,-13.44534 0.37002,-1.68468 2.25326,-4.81247 4.18498,-6.95066 L 109.51362,137 l 9.40508,0 c 8.34075,0 9.82967,0.28098 13.157,2.4829 7.75008,5.12876 18.09908,5.09667 26.95793,-0.0836 3.65587,-2.13779 5.26987,-2.44558 11.5,-2.19305 l 7.24727,0.29375 0,12 0,12 -19.34064,0.27191 c -10.63735,0.14955 -19.17291,-0.0754 -18.96791,-0.5 0.205,-0.42455 1.00128,-2.02754 1.76951,-3.5622 2.16065,-4.31623 0.43237,-8.12051 -3.87704,-8.53411 -2.97487,-0.28552 -4.11133,0.39714 -9.48195,5.69567 -8.41655,8.30359 -12.75649,9.73118 -19.49385,6.41234 z m -87.108121,-16.27082 0,-17.01279 13.442502,0 13.442502,0 0.307498,4.25 0.307498,4.25 21.862789,0.26982 21.862789,0.26981 -0.769074,2.73019 c -0.884456,3.13978 -1.199545,16.75801 -0.456504,19.73018 0.491991,1.96796 -0.06465,2.00421 -34.75,2.26279 l -35.25,0.2628 0,-17.0128 z m 47.25,-32.76255 -47.25,-0.26982 0,-12.490212 0,-12.490208 60,0 c 33.000001,0 60.000001,0.380256 60.000001,0.845012 0,0.464757 -0.95164,1.702257 -2.11476,2.75 C 133.93616,95.3062 135.24168,102 141.39051,102 c 2.36938,0 4.46,-1.32912 9.22694,-5.866073 C 157.7003,89.392814 160.00338,88 164.06728,88 c 3.54125,0 9.22672,3.655366 10.93431,7.030015 1.95484,3.863268 1.5368,9.291495 -1.0067,13.072105 L 171.70888,111.5 160.24489,112 c -10.54689,0.46 -11.89904,0.30724 -16.90227,-1.9095 -7.44132,-3.29698 -15.07879,-3.19172 -22.0381,0.30374 -2.85337,1.43317 -5.26347,2.49777 -5.35578,2.36579 -0.0923,-0.13199 -21.430341,-0.36139 -47.417841,-0.50979 z m -47.25,-58.256335 0,-17.006094 78.25,0.256094 L 177.7809,37.5 l 0,12 0,12 -64.5,0.518386 c -35.475001,0.285113 -64.612501,0.622613 -64.750001,0.75 -0.1375,0.127388 -0.25,2.031614 -0.25,4.231614 l 0,4 -13.5,0 -13.5,0 0,-17.006095 z"
     style="fill:#2f2f2f" />
  <path
     inkscape:connector-curvature="0"
     id="path3015"
     d="m 112.7809,161.25854 c -6.01801,-1.08816 -9.5,-5.3787 -9.5,-11.706 0,-2.67061 0.89336,-4.53562 3.61636,-7.54966 L 110.51362,138 l 8.47927,0 c 7.03592,0 8.98598,0.36081 11.45606,2.11966 8.60342,6.12617 20.54961,6.27564 29.25786,0.36605 C 162.73988,138.42742 164.56573,138 170.32531,138 l 6.95559,0 0,11.5 0,11.5 -18,0 c -9.9,0 -18,-0.15586 -18,-0.34636 0,-0.1905 0.69745,-1.74444 1.54989,-3.45319 1.38813,-2.78257 1.39177,-3.41258 0.0349,-6.03647 -1.59034,-3.07538 -5.16482,-4.60157 -8.25534,-3.52478 -1.0062,0.35058 -4.54529,3.27887 -7.86463,6.5073 -5.92277,5.76056 -9.9883,7.83106 -13.96483,7.11204 z m -90.500001,-16.78932 0,-16.53078 12.25,0.28078 12.25,0.28078 0.305969,3.5 c 0.505023,5.777 1.396722,6 23.992149,6 19.049558,0 20.36798,0.11712 19.70042,1.75 -2.659308,6.50479 -3.036534,14.14683 -0.962561,19.5 0.637597,1.64571 -1.354522,1.75 -33.428988,1.75 l -34.106989,0 0,-16.53078 z m 45.75,-33.21897 -45.75,-0.27043 0,-11.489908 0,-11.489912 58.588894,0 58.588897,0 -2.5889,3.076725 c -1.42389,1.692199 -2.58889,4.187654 -2.58889,5.545455 0,2.982607 4.13118,7.37782 6.93462,7.37782 1.11403,0 5.07199,-2.76639 8.79545,-6.147524 8.33508,-7.568774 12.16362,-9.372694 16.70863,-7.872705 6.88526,2.27234 10.3191,9.720334 7.23296,15.688279 -2.62653,5.07914 -3.84311,5.5358 -14.89937,5.59271 -8.9479,0.0461 -10.85247,-0.2536 -14.77229,-2.32424 -6.63519,-3.50503 -16.50923,-3.37245 -24.18807,0.32477 -3.12845,1.50629 -5.82845,2.63086 -6,2.49905 -0.17156,-0.13181 -20.899431,-0.36135 -46.061931,-0.51009 z m -45.75,-56.719471 0,-16.530779 77.5,0 77.500001,0 0,11.5 0,11.5 -63.30887,0 C 64.863685,61 50.296383,61.280382 49.027997,62.25 48.128659,62.9375 47.25515,65.075 47.086868,67 l -0.305969,3.5 -12.25,0.280779 -12.25,0.280779 0,-16.530779 z"
     style="fill:#020202" />
</svg>
